# xmcd
#
# Track frame offsets:
#	150
#	11323
#	22835
#	34013
#	45091
#	55151
#	68163
#	80425
#	97329
#	108838
#	125442
#	136621
#	148096
#	159246
#	170331
#	180464
#	193492
#	205732
#	222605
#	234081
#
# Disc length: 3340 seconds
#
# Revision: 0
# Processed by: cddbd v1.5.2PL0 Copyright (c) Steve Scherf et al.
# Submitted via: audiograbber 1.83.01
#
DISCID=030d0a14
DTITLE=ламос бажеиадгс (BY DJ ZRAF) - MAZOO AND THE ZOO
DYEAR=2007
DGENRE=Children
TTITLE0=г аяйоуда
TTITLE1=о пкатымас, о сйукос лоу
TTITLE2=г йалгка
TTITLE3=о сожойкгс, то йамаяими
TTITLE4=о папацакос
TTITLE5=г ьиьима
TTITLE6=г папиа
TTITLE7=о сйамтфовоияос
TTITLE8=г йота г баябаяа
TTITLE9=г петакоудитса
TTITLE10=г аяйоуда (йаяаойи)
TTITLE11=о пкатымас, о сйукос лоу (йаяаойи)
TTITLE12=г йалгка (йаяаойи)
TTITLE13=о сожойкгс, то йамаяими (йаяаойи)
TTITLE14=о папацакос (йаяаойи)
TTITLE15=г ьиьима (йаяаойи)
TTITLE16=г папиа (йаяаойи)
TTITLE17=о сйамтфовоияос (йаяаойи)
TTITLE18=г йота г баябаяа (йаяаойи)
TTITLE19=г петакоудитса (йаяаойи)
EXTD=
EXTT0=
EXTT1=
EXTT2=
EXTT3=
EXTT4=
EXTT5=
EXTT6=
EXTT7=
EXTT8=
EXTT9=
EXTT10=
EXTT11=
EXTT12=
EXTT13=
EXTT14=
EXTT15=
EXTT16=
EXTT17=
EXTT18=
EXTT19=
PLAYORDER=
